<svg xmlns="http://www.w3.org/2000/svg" width="82" height="64" viewBox="66 -4 82 64">
   <g clip-path="url(#clip0_1252_10144)">
    <path d="M140.555 28.457H136.855V41.9523H140.555V28.457Z" fill="#66B821"/>
    <path d="M114.868 35.2048C114.867 33.2595 114.191 31.3748 112.957 29.8722C111.723 28.3696 110.006 27.342 108.1 26.9648V43.4448C110.006 43.0684 111.724 42.0411 112.958 40.5383C114.192 39.0355 114.867 37.1504 114.868 35.2048Z" fill="#66B821"/>
    <path d="M108.095 17.5195V24.3587C110.671 24.7737 113.014 26.0933 114.706 28.081C116.397 30.0687 117.326 32.5946 117.326 35.2058C117.326 37.817 116.397 40.3428 114.706 42.3305C113.014 44.3182 110.671 45.6378 108.095 46.0528V52.4617H140.564V44.5421H135.561C135.218 44.5421 134.889 44.4056 134.646 44.1627C134.403 43.9197 134.267 43.5902 134.267 43.2466V27.1649C134.271 26.8237 134.408 26.4977 134.651 26.2577C134.893 26.0177 135.22 25.8831 135.561 25.8831H140.555V17.5195H108.095Z" fill="#66B821"/>
    <path d="M76.797 28.457H73.0974V41.9523H76.797V28.457Z" fill="#007A32"/>
    <path d="M98.7888 35.2048C98.79 33.2595 99.4653 31.3748 100.7 29.8722C101.934 28.3696 103.651 27.342 105.557 26.9648V43.4448C103.65 43.0684 101.933 42.0411 100.699 40.5383C99.4642 39.0355 98.7892 37.1504 98.7888 35.2048Z" fill="#007A32"/>
    <path d="M105.562 17.5195V24.3587C102.986 24.7737 100.643 26.0933 98.9513 28.081C97.2597 30.0687 96.3307 32.5946 96.3307 35.2058C96.3307 37.817 97.2597 40.3428 98.9513 42.3305C100.643 44.3182 102.986 45.6378 105.562 46.0528V52.4617H73.093V44.5421H78.0868C78.4301 44.5421 78.7592 44.4056 79.0019 44.1627C79.2446 43.9197 79.381 43.5902 79.381 43.2466V27.1649C79.3774 26.8253 79.2407 26.5006 79.0004 26.2609C78.76 26.0212 78.4352 25.8855 78.096 25.8831H73.1022V17.5195H105.562Z" fill="#007A32"/>
    <path d="M106.828 0C91.623 0.0686666 78.0913 5.82293 73.1021 14.3651H76.7605C77.888 12.9107 79.2098 11.6184 80.6888 10.5243L86.8944 14.3651H91.8288L98.4415 4.41755L105.246 14.3651H106.828V0ZM88.742 12.5523L82.9799 8.98617C84.8122 7.88404 86.7409 6.95091 88.742 6.19831V12.5523ZM91.28 10.6342V5.34226C92.6519 4.92111 94.0696 4.55031 95.533 4.23902L91.28 10.6342ZM100.797 3.39213C102.406 3.2136 104.043 3.10373 105.69 3.06711V10.5472L100.797 3.39213Z" fill="#007A32"/>
    <path d="M106.828 14.3834H108.415L115.22 4.43586L121.833 14.3834H126.767L132.973 10.5426C134.452 11.6367 135.773 12.929 136.901 14.3834H140.559C135.566 5.82293 122.034 0.0686666 106.828 0V14.3834ZM124.915 6.19831C126.916 6.94798 128.844 7.87803 130.677 8.97701L124.915 12.5431V6.19831ZM118.128 4.22528C119.592 4.53657 121.019 4.90737 122.381 5.32853V10.6342L118.128 4.22528ZM107.976 10.5472V3.06711C109.623 3.10831 111.264 3.21817 112.869 3.39213L107.976 10.5472Z" fill="#66B821"/>
   </g>
</svg>